<svg width="14" height="14" viewBox="0 0 14 14" fill="none" xmlns="http://www.w3.org/2000/svg">
<path fill-rule="evenodd" clip-rule="evenodd" d="M12.7406 1.25942C12.228 0.746859 11.397 0.746859 10.8844 1.25942L7 5.14384L3.11558 1.25942L3.0159 1.16932C2.50038 0.748861 1.73995 0.778894 1.25942 1.25942C0.746859 1.77199 0.746859 2.60301 1.25942 3.11558L5.14384 7L1.25942 10.8844L1.16932 10.9841C0.748861 11.4996 0.778894 12.26 1.25942 12.7406C1.77199 13.2531 2.60301 13.2531 3.11558 12.7406L7 8.85616L10.8844 12.7406L10.9841 12.8307C11.4996 13.2511 12.26 13.2211 12.7406 12.7406C13.2531 12.228 13.2531 11.397 12.7406 10.8844L8.85616 7L12.7406 3.11558L12.8307 3.0159C13.2511 2.50038 13.2211 1.73995 12.7406 1.25942Z" fill="black"/>
</svg>
