<svg width="20" height="20" viewBox="0 0 20 20" fill="none" xmlns="http://www.w3.org/2000/svg">
<path fill-rule="evenodd" clip-rule="evenodd" d="M10 20C15.5228 20 20 15.5228 20 10C20 4.47715 15.5228 0 10 0C4.47715 0 0 4.47715 0 10C0 15.5228 4.47715 20 10 20ZM11.6356 5.81931C11.6356 6.72304 10.903 7.45567 9.99928 7.45567C9.09554 7.45567 8.36292 6.72304 8.36292 5.81931C8.36292 4.91557 9.09554 4.18294 9.99928 4.18294C10.903 4.18294 11.6356 4.91557 11.6356 5.81931ZM9.99875 8.9095C10.5636 8.9095 11.0282 9.33878 11.084 9.88888L11.0897 10.0004V14.9095C11.0897 15.512 10.6012 16.0004 9.99875 16.0004C9.43391 16.0004 8.96933 15.5711 8.91347 15.021L8.90784 14.9095V10.0004C8.90784 9.39792 9.39625 8.9095 9.99875 8.9095Z" fill="#EAEAFF"/>
</svg>
