<svg width="19" height="17" viewBox="0 0 19 17" fill="none" xmlns="http://www.w3.org/2000/svg">
<path d="M16.6643 16.6668C16.5548 16.6672 16.4464 16.6458 16.3453 16.6039C16.2442 16.5621 16.1524 16.5005 16.0753 16.4228L10.5513 10.8998C9.99859 11.1991 9.36406 11.3118 8.74214 11.2212C8.12022 11.1307 7.54418 10.8417 7.09978 10.3973C6.65538 9.95291 6.36639 9.37687 6.27584 8.75495C6.1853 8.13303 6.29803 7.49849 6.59726 6.94583L1.07426 1.42283C0.917918 1.26661 0.830032 1.05469 0.829938 0.833679C0.829844 0.612667 0.917551 0.400671 1.07376 0.244325C1.22998 0.0879803 1.4419 9.38433e-05 1.66291 7.51092e-08C1.88392 -9.36931e-05 2.09592 0.0876129 2.25226 0.243825L17.2523 15.2438C17.3688 15.3603 17.4481 15.5087 17.4802 15.6703C17.5124 15.8319 17.4959 15.9994 17.4328 16.1516C17.3698 16.3038 17.263 16.4339 17.126 16.5254C16.9891 16.617 16.828 16.6658 16.6633 16.6658L16.6643 16.6668ZM7.91626 8.26683C7.91626 8.29183 7.91626 8.31383 7.91626 8.33583C7.91679 8.66718 8.04866 8.98482 8.28296 9.21912C8.51727 9.45343 8.8349 9.5853 9.16626 9.58583H9.23526L7.91526 8.26383L7.91626 8.26683ZM9.16426 14.1668C6.77554 14.0416 4.50461 13.09 2.74026 11.4748C2.07293 10.9209 1.44662 10.3193 0.866263 9.67483C0.684263 9.47483 0.511263 9.27483 0.353263 9.07483L0.253263 8.95483L0.215263 8.89983L0.183263 8.85883L0.178263 8.85183L0.167263 8.83783V8.83283C0.176603 8.82403 0.186636 8.81601 0.197263 8.80883L0.726263 8.40883L0.165263 8.82783C0.057943 8.68321 0 8.50791 0 8.32783C0 8.14774 0.057943 7.97244 0.165263 7.82783L0.833263 8.32783L0.165263 7.82783V7.82183L0.176263 7.80883V7.80383L0.209263 7.76083C0.241263 7.71983 0.287263 7.66083 0.347263 7.58783C0.453263 7.45683 0.629263 7.24583 0.860263 6.98783C1.44061 6.34333 2.06692 5.74175 2.73426 5.18783C2.90493 5.04607 3.12492 4.97791 3.34584 4.99835C3.56676 5.01879 3.77051 5.12616 3.91226 5.29683C4.05402 5.46749 4.12218 5.68748 4.10174 5.9084C4.08129 6.12932 3.97393 6.33307 3.80326 6.47483C3.19823 6.97811 2.6301 7.52418 2.10326 8.10883C2.03126 8.18883 1.96526 8.26383 1.90326 8.33283C1.96226 8.40083 2.02726 8.47383 2.10326 8.55683C2.6301 9.14147 3.19823 9.68754 3.80326 10.1908C5.28039 11.5405 7.16873 12.3538 9.16426 12.4998C9.65809 12.4978 10.1498 12.435 10.6283 12.3128C10.7881 12.2731 10.9561 12.2817 11.1111 12.3373C11.2661 12.393 11.4011 12.4933 11.4992 12.6256C11.5973 12.7579 11.654 12.9163 11.6622 13.0807C11.6704 13.2452 11.6297 13.4084 11.5453 13.5498C11.4893 13.6439 11.4152 13.7259 11.3274 13.7912C11.2395 13.8564 11.1395 13.9035 11.0333 13.9298C10.4223 14.0848 9.7946 14.1644 9.16426 14.1668V14.1668ZM15.0573 11.6668C14.8856 11.6673 14.718 11.6147 14.5774 11.5163C14.4367 11.4178 14.33 11.2784 14.2716 11.1169C14.2133 10.9555 14.2062 10.78 14.2515 10.6144C14.2967 10.4488 14.392 10.3012 14.5243 10.1918C15.1293 9.68854 15.6974 9.14247 16.2243 8.55783C16.2963 8.47783 16.3623 8.40283 16.4243 8.33383C16.3653 8.26583 16.3003 8.19183 16.2243 8.10983C15.6974 7.52518 15.1293 6.97911 14.5243 6.47583C13.0473 5.12674 11.1593 4.3138 9.16426 4.16783C8.67427 4.17017 8.18637 4.23196 7.71126 4.35183C7.60462 4.37887 7.49367 4.38451 7.38482 4.36844C7.27598 4.35237 7.1714 4.31489 7.07712 4.25817C6.98284 4.20146 6.90073 4.12663 6.83554 4.038C6.77034 3.94938 6.72334 3.84871 6.69726 3.74183C6.64409 3.5274 6.67827 3.30063 6.7923 3.11141C6.90632 2.92218 7.09084 2.786 7.30526 2.73283C7.91312 2.5797 8.53742 2.50145 9.16426 2.49983C11.5491 2.64176 13.8147 3.59114 15.5883 5.19183C16.2556 5.74575 16.8819 6.34733 17.4623 6.99183C17.6933 7.24883 17.8693 7.45883 17.9753 7.59183C18.0343 7.66483 18.0803 7.72283 18.1133 7.76483L18.1453 7.80783V7.81383L18.1563 7.82783C18.1563 7.82783 18.1563 7.82783 17.5003 8.32083L18.1583 7.83083C18.266 7.97524 18.3243 8.15062 18.3243 8.33083C18.3243 8.51103 18.266 8.68641 18.1583 8.83083V8.83783L18.1473 8.85083V8.85583L18.1143 8.89883L18.0733 8.94983L17.9733 9.07183C17.8153 9.26583 17.6423 9.47183 17.4603 9.67183C16.8799 10.3163 16.2536 10.9179 15.5863 11.4718C15.4376 11.5965 15.2502 11.6654 15.0563 11.6668H15.0573Z" fill="#1F1F39"/>
</svg>
