<svg width="15" height="15" viewBox="0 0 15 15" fill="none" xmlns="http://www.w3.org/2000/svg">
<path fill-rule="evenodd" clip-rule="evenodd" d="M7.5 15C11.6421 15 15 11.6421 15 7.5C15 3.35786 11.6421 0 7.5 0C3.35786 0 0 3.35786 0 7.5C0 11.6421 3.35786 15 7.5 15ZM8.72676 4.36372C8.72676 5.04153 8.17729 5.591 7.49949 5.591C6.82169 5.591 6.27222 5.04153 6.27222 4.36372C6.27222 3.68592 6.82169 3.13645 7.49949 3.13645C8.17729 3.13645 8.72676 3.68592 8.72676 4.36372ZM7.49909 6.68204C7.92272 6.68204 8.27115 7.00399 8.31305 7.41657L8.31727 7.50022V11.182C8.31727 11.6339 7.95096 12.0002 7.49909 12.0002C7.07546 12.0002 6.72703 11.6783 6.68513 11.2657L6.68091 11.182V7.50022C6.68091 7.04835 7.04722 6.68204 7.49909 6.68204Z" fill="#FF0000"/>
</svg>
