<svg width="25" height="25" viewBox="0 0 25 25" fill="none" xmlns="http://www.w3.org/2000/svg">
<path fill-rule="evenodd" clip-rule="evenodd" d="M18.6878 6.312C17.0759 4.69946 14.8693 3.75 12.5004 3.75C7.66787 3.75 3.75037 7.66751 3.75037 12.5V13.4375H5.62537V12.5L5.6283 12.2973C5.73553 8.59409 8.77121 5.625 12.5004 5.625C14.3622 5.625 16.0952 6.37043 17.3619 7.63782L16.2092 8.79056C15.7052 9.29453 16.0622 10.1562 16.7749 10.1562H20.2935C20.7353 10.1562 21.0935 9.79808 21.0935 9.35625V5.83762C21.0935 5.12489 20.2318 4.76796 19.7278 5.27193L18.6878 6.312ZM8.79032 16.2094C9.29429 15.7055 8.93736 14.8437 8.22464 14.8437H4.70601C4.26418 14.8437 3.90601 15.2019 3.90601 15.6437V19.1624C3.90601 19.8751 4.76772 20.232 5.27169 19.7281L6.31207 18.6877C7.92424 20.3007 10.131 21.25 12.4997 21.25C17.3322 21.25 21.2497 17.3325 21.2497 12.5V11.5625H19.3747V12.5L19.3718 12.7027C19.2646 16.4059 16.2289 19.375 12.4997 19.375C10.638 19.375 8.90485 18.6297 7.63789 17.3619L8.79032 16.2094Z" fill="black"/>
</svg>
